<svg width="339" height="45" viewBox="0 0 339 45" fill="none" xmlns="http://www.w3.org/2000/svg">
<path d="M20.2188 11.1094C20.2812 11.2031 20.4141 11.4453 20.6172 11.8359C20.8359 12.2109 21.0391 12.7656 21.2266 13.5C21.4297 14.2188 21.5312 15.0391 21.5312 15.9609C21.5312 19.1016 20.5859 21.4453 18.6953 22.9922C16.8047 24.5391 14.2266 25.3125 10.9609 25.3125C10.0703 25.3125 9.28906 25.2578 8.61719 25.1484C7.94531 25.0391 7.52344 24.9531 7.35156 24.8906L7.11719 29.3906H14.5703C17.7109 29.3906 20.0938 29.9844 21.7188 31.1719C23.3438 32.3594 24.1562 34.0859 24.1562 36.3516C24.1562 39.0703 23.1016 41.1875 20.9922 42.7031C18.8828 44.2344 15.7812 45 11.6875 45C8.07812 45 5.25 44.4609 3.20312 43.3828C1.17188 42.3203 0.15625 40.5391 0.15625 38.0391C0.15625 36.7578 0.53125 35.6641 1.28125 34.7578C2.03125 33.8672 2.86719 33.1797 3.78906 32.6953C4.72656 32.1953 5.19531 31.9766 5.19531 32.0391C5.19531 32.0703 4.92969 32.0078 4.39844 31.8516C3.88281 31.6953 3.40625 31.4141 2.96875 31.0078C2.53125 30.6016 2.3125 30.0312 2.3125 29.2969C2.3125 28.8125 2.49219 28.1719 2.85156 27.375C3.22656 26.5781 3.61719 25.8438 4.02344 25.1719C4.42969 24.5 4.69531 24.0703 4.82031 23.8828C4.82031 23.9766 4.47656 23.7344 3.78906 23.1562C3.10156 22.5781 2.48438 21.7422 1.9375 20.6484C1.39062 19.5391 1.11719 18.1328 1.11719 16.4297C1.11719 13.3828 2.07031 11.0625 3.97656 9.46875C5.88281 7.875 8.45312 7.07812 11.6875 7.07812C12.6094 7.07812 13.4219 7.14062 14.125 7.26562C14.8281 7.39062 15.3672 7.53125 15.7422 7.6875C16.1328 7.82812 16.375 7.92969 16.4688 7.99219L24.8828 7.80469V10.4297L20.2188 11.1094ZM11.4297 10.4297C9.55469 10.4297 8.16406 10.9062 7.25781 11.8594C6.36719 12.7969 5.92188 14.2422 5.92188 16.1953C5.92188 17.9609 6.36719 19.3672 7.25781 20.4141C8.16406 21.4453 9.47656 21.9609 11.1953 21.9609C13.1172 21.9609 14.5156 21.5078 15.3906 20.6016C16.2812 19.6797 16.7266 18.2109 16.7266 16.1953C16.7266 14.3359 16.2812 12.9141 15.3906 11.9297C14.5156 10.9297 13.1953 10.4297 11.4297 10.4297ZM8.07812 33C8.07812 32.9375 7.78906 33.1016 7.21094 33.4922C6.63281 33.8984 6.10938 34.4219 5.64062 35.0625C5.1875 35.7031 4.96094 36.4531 4.96094 37.3125C4.96094 38.875 5.57812 39.9453 6.8125 40.5234C8.04688 41.1016 9.90625 41.3906 12.3906 41.3906C14.8281 41.3906 16.6406 41.0156 17.8281 40.2656C19.0156 39.5156 19.6094 38.375 19.6094 36.8438C19.6094 35.375 19.0859 34.3672 18.0391 33.8203C16.9922 33.2734 15.4297 33 13.3516 33H8.07812ZM56.0781 32.7656L48.1562 33L47.6875 29.6484C46.7344 30.5078 45.4375 31.3594 43.7969 32.2031C42.1562 33.0469 40.4922 33.4688 38.8047 33.4688C36.2422 33.4688 34.3203 32.7188 33.0391 31.2188C31.7578 29.7188 31.1172 27.6094 31.1172 24.8906V11.3906L27.0391 10.4297V7.80469L35.9219 7.57031V24.3984C35.9219 26.1016 36.2578 27.3594 36.9297 28.1719C37.6016 28.9844 38.7031 29.3906 40.2344 29.3906C41.4531 29.3906 42.5703 29.1172 43.5859 28.5703C44.6172 28.0078 45.4766 27.3906 46.1641 26.7188C46.8516 26.0469 47.1953 25.6797 47.1953 25.6172V11.3906L43.1172 10.4297V7.80469L52 7.57031V29.1562L56.0781 30.1172V32.7656ZM67.5625 10.9688C68.4688 10.1094 69.7188 9.25 71.3125 8.39062C72.9062 7.51562 74.5547 7.07812 76.2578 7.07812C79.4922 7.07812 81.7188 8.45312 82.9375 11.2031C83.7344 10.4062 84.9453 9.52344 86.5703 8.55469C88.2109 7.57031 89.9766 7.07812 91.8672 7.07812C94.4297 7.07812 96.3047 7.83594 97.4922 9.35156C98.6953 10.8516 99.2969 12.9766 99.2969 15.7266V29.1562L102.906 30.3516V33H91.375V30.3516L94.4922 29.1562V16.1953C94.4922 14.4297 94.1875 13.1484 93.5781 12.3516C92.9688 11.5547 91.9141 11.1562 90.4141 11.1562C89.1953 11.1562 88.0859 11.4453 87.0859 12.0234C86.1016 12.6016 85.2891 13.2266 84.6484 13.8984C84.0078 14.5703 83.6875 14.9375 83.6875 15V29.1562L86.8281 30.3516V33H75.7656V30.3516L78.9062 29.1562V16.1953C78.9062 14.4297 78.6016 13.1484 77.9922 12.3516C77.3828 11.5547 76.3281 11.1562 74.8281 11.1562C73.6094 11.1562 72.5 11.4453 71.5 12.0234C70.5156 12.6016 69.7031 13.2266 69.0625 13.8984C68.4219 14.5703 68.1016 14.9375 68.1016 15V29.1562L71.2188 30.3516V33H59.2188V30.3516L63.2969 29.1562V11.3906L59.2188 10.4297V7.80469L67.1406 7.57031L67.5625 10.9688ZM114.625 10.9688C115.625 10.1094 116.93 9.25 118.539 8.39062C120.164 7.51562 121.836 7.07812 123.555 7.07812C126.117 7.07812 128.039 7.84375 129.32 9.375C130.602 10.8906 131.242 13.0078 131.242 15.7266V29.1562L134.828 30.3516V33H123.32V30.3516L126.438 29.1562V16.1953C126.438 14.4609 126.102 13.1875 125.43 12.375C124.758 11.5625 123.656 11.1562 122.125 11.1562C120.906 11.1562 119.781 11.4453 118.75 12.0234C117.734 12.6016 116.883 13.2266 116.195 13.8984C115.508 14.5703 115.164 14.9375 115.164 15V29.1562L118.281 30.3516V33H106.281V30.3516L110.359 29.1562V11.3906L106.281 10.4297V7.80469L114.203 7.57031L114.625 10.9688ZM166.281 32.7656L158.359 33L157.891 29.6484C156.938 30.5078 155.641 31.3594 154 32.2031C152.359 33.0469 150.695 33.4688 149.008 33.4688C146.445 33.4688 144.523 32.7188 143.242 31.2188C141.961 29.7188 141.32 27.6094 141.32 24.8906V11.3906L137.242 10.4297V7.80469L146.125 7.57031V24.3984C146.125 26.1016 146.461 27.3594 147.133 28.1719C147.805 28.9844 148.906 29.3906 150.438 29.3906C151.656 29.3906 152.773 29.1172 153.789 28.5703C154.82 28.0078 155.68 27.3906 156.367 26.7188C157.055 26.0469 157.398 25.6797 157.398 25.6172V11.3906L153.32 10.4297V7.80469L162.203 7.57031V29.1562L166.281 30.1172V32.7656ZM185.031 11.3906H178.07V26.8125C178.07 28.7656 178.867 29.7422 180.461 29.7422C181.492 29.7422 182.742 29.3438 184.211 28.5469L185.5 31.0781C183.328 32.6719 181.086 33.4688 178.773 33.4688C177.148 33.4688 175.82 32.9375 174.789 31.875C173.773 30.7969 173.266 29.0156 173.266 26.5312V11.3906H168.461V8.27344L173.266 7.80469V1.75781L178.07 0.796875V7.80469H185.031V11.3906ZM192.977 27.7266C192.977 27.7578 193.398 27.8438 194.242 27.9844C195.086 28.125 196.008 28.1953 197.008 28.1953C199.633 28.1953 200.938 27.4141 200.922 25.8516C200.922 25.1484 200.555 24.5781 199.82 24.1406C199.086 23.7031 197.922 23.2188 196.328 22.6875C194.625 22.1094 193.227 21.5469 192.133 21C191.055 20.4531 190.117 19.6797 189.32 18.6797C188.523 17.6641 188.125 16.375 188.125 14.8125C188.125 12 189.062 9.92969 190.938 8.60156C192.828 7.27344 195.188 6.60938 198.016 6.60938C199.297 6.60938 200.594 6.71094 201.906 6.91406C203.234 7.11719 204.344 7.34375 205.234 7.59375C206.141 7.82812 206.703 7.97656 206.922 8.03906L206.734 15.2344H202.656L201.953 12.3516C201.953 12.3203 201.594 12.2344 200.875 12.0938C200.172 11.9531 199.422 11.8828 198.625 11.8828C197.562 11.8828 196.742 12.0938 196.164 12.5156C195.602 12.9219 195.32 13.5234 195.32 14.3203C195.32 15.0234 195.688 15.5859 196.422 16.0078C197.156 16.4297 198.32 16.875 199.914 17.3438C201.617 17.8906 203.016 18.4141 204.109 18.9141C205.219 19.4141 206.164 20.1484 206.945 21.1172C207.742 22.0703 208.141 23.3125 208.141 24.8438C208.141 27.5625 207.141 29.6797 205.141 31.1953C203.141 32.7109 200.461 33.4688 197.102 33.4688C195.758 33.4688 194.43 33.3906 193.117 33.2344C191.805 33.0781 190.719 32.9219 189.859 32.7656C189.016 32.6094 188.484 32.4922 188.266 32.4141V24.6094H192.578L192.977 27.7266ZM218.992 21.6328C219.117 23.5547 219.695 25.0547 220.727 26.1328C221.773 27.1953 223.133 27.7266 224.805 27.7266C225.992 27.7266 227.18 27.5625 228.367 27.2344C229.57 26.8906 230.562 26.5469 231.344 26.2031C232.141 25.8438 232.648 25.5938 232.867 25.4531L234.93 29.4375C234.93 29.5 234.367 29.8984 233.242 30.6328C232.133 31.3516 230.766 32.0078 229.141 32.6016C227.531 33.1797 225.812 33.4688 223.984 33.4688C219.922 33.4688 216.828 32.3438 214.703 30.0938C212.578 27.8438 211.516 24.6562 211.516 20.5312C211.516 17.75 212.023 15.3125 213.039 13.2188C214.07 11.1094 215.547 9.48438 217.469 8.34375C219.391 7.1875 221.672 6.60938 224.312 6.60938C227.828 6.60938 230.523 7.61719 232.398 9.63281C234.273 11.6484 235.211 14.3984 235.211 17.8828C235.211 18.6484 235.172 19.3906 235.094 20.1094C235.016 20.8281 234.961 21.2812 234.93 21.4688L218.992 21.6328ZM223.844 12.3516C222.531 12.3516 221.461 12.7969 220.633 13.6875C219.805 14.5625 219.289 15.7188 219.086 17.1562H227.781C227.781 15.7188 227.461 14.5625 226.82 13.6875C226.18 12.7969 225.188 12.3516 223.844 12.3516ZM249.109 10.3828C249.109 10.3203 249.484 9.95312 250.234 9.28125C250.984 8.60938 251.852 8 252.836 7.45312C253.836 6.89062 254.82 6.60938 255.789 6.60938C256.555 6.60938 257.273 6.67188 257.945 6.79688C258.617 6.92188 259.141 7.05469 259.516 7.19531C259.906 7.33594 260.148 7.42188 260.242 7.45312L259.867 16.6875H255.555L254.828 12.6094C254 12.6094 253.195 12.8125 252.414 13.2188C251.648 13.6094 250.992 14.0469 250.445 14.5312C249.914 15 249.648 15.25 249.648 15.2812V27.9609L254.453 29.1562V33H238.609V29.1562L242.453 27.9609V12.3516L238.609 11.1562V7.3125L248.688 7.07812L249.109 10.3828ZM276.438 7.3125L289.023 7.07812V11.1562L286.281 11.7891L278.547 33H270.625L263.055 11.9297L260.734 11.1562V7.3125L273.32 7.07812V11.1562L270.625 11.6484L274.984 25.8047L279.227 11.7891L276.438 11.1562V7.3125ZM297.414 21.6328C297.539 23.5547 298.117 25.0547 299.148 26.1328C300.195 27.1953 301.555 27.7266 303.227 27.7266C304.414 27.7266 305.602 27.5625 306.789 27.2344C307.992 26.8906 308.984 26.5469 309.766 26.2031C310.562 25.8438 311.07 25.5938 311.289 25.4531L313.352 29.4375C313.352 29.5 312.789 29.8984 311.664 30.6328C310.555 31.3516 309.188 32.0078 307.562 32.6016C305.953 33.1797 304.234 33.4688 302.406 33.4688C298.344 33.4688 295.25 32.3438 293.125 30.0938C291 27.8438 289.938 24.6562 289.938 20.5312C289.938 17.75 290.445 15.3125 291.461 13.2188C292.492 11.1094 293.969 9.48438 295.891 8.34375C297.812 7.1875 300.094 6.60938 302.734 6.60938C306.25 6.60938 308.945 7.61719 310.82 9.63281C312.695 11.6484 313.633 14.3984 313.633 17.8828C313.633 18.6484 313.594 19.3906 313.516 20.1094C313.438 20.8281 313.383 21.2812 313.352 21.4688L297.414 21.6328ZM302.266 12.3516C300.953 12.3516 299.883 12.7969 299.055 13.6875C298.227 14.5625 297.711 15.7188 297.508 17.1562H306.203C306.203 15.7188 305.883 14.5625 305.242 13.6875C304.602 12.7969 303.609 12.3516 302.266 12.3516ZM327.531 10.3828C327.531 10.3203 327.906 9.95312 328.656 9.28125C329.406 8.60938 330.273 8 331.258 7.45312C332.258 6.89062 333.242 6.60938 334.211 6.60938C334.977 6.60938 335.695 6.67188 336.367 6.79688C337.039 6.92188 337.562 7.05469 337.938 7.19531C338.328 7.33594 338.57 7.42188 338.664 7.45312L338.289 16.6875H333.977L333.25 12.6094C332.422 12.6094 331.617 12.8125 330.836 13.2188C330.07 13.6094 329.414 14.0469 328.867 14.5312C328.336 15 328.07 15.25 328.07 15.2812V27.9609L332.875 29.1562V33H317.031V29.1562L320.875 27.9609V12.3516L317.031 11.1562V7.3125L327.109 7.07812L327.531 10.3828Z" fill="black"/>
</svg>
